<svg xmlns="http://www.w3.org/2000/svg" width="374" height="121"><g fill="none" fill-rule="evenodd"><path fill="#F57AFF" fill-rule="nonzero" d="M92.363 57.429s.593-.997 4.545-8.122c7.439-13.29-.617-20.514-2.677-34.983-.755-5.316-2.09-10.916-5.306-7.028-5.336 6.442-2.692 12.258-.943 17.608-1.966-4.452-3.79-5.906-4.943-4.876-2.168 1.978-2.547 8.548.084 15.846 0 0-2.392-4.418-4.222-3.155-3.438 2.446-1.828 9.947 1.769 13.862 3.937 4.29 5.036 7.702 4.928 9.532-.079 2.68 6.244 1.891 6.765 1.316Z"/><path fill="#FFF" d="M44.553 39.763c-2.144-1.187-3.397-2.65-3.133-3.956.44-2.174 4.917-3.09 10-2.045 1.9.39 3.614.999 4.994 1.722l.002-.007c.439-2.174 4.916-3.09 10-2.045 2.72.56 5.061 1.566 6.584 2.714 1.804-.905 5.427-.535 9.17 1.098 3.307 1.443 5.838 3.493 6.783 5.293 9.14 5.422 16.754 14.096 17.036 24.944.496 18.893-16.228 29.972-36.927 30.5-20.698.527-37.556-9.6-38.052-28.492-.242-9.247 3.756-17.394 10.33-23.305-2.136-1.186-3.384-2.646-3.12-3.949.328-1.627 2.92-2.55 6.333-2.472Z"/><path fill="#003451" fill-rule="nonzero" d="m44.48 39.677-.02.893a.885.885 0 0 0 .873-.661.896.896 0 0 0-.428-1.014l-.426.782Zm-3.144-3.968-.866-.178.866.178Zm10.032-2.052-.177.874.177-.874Zm5.01 1.727-.408.792c.246.13.538.134.789.013a.892.892 0 0 0 .485-.628l-.867-.177Zm0-.006-.866-.179v.002l.866.177Zm10.031-2.052.177-.874-.177.874Zm6.605 2.723-.529.715a.877.877 0 0 0 .923.084l-.394-.8Zm9.198 1.102-.35.819.35-.82Zm6.804 5.31-.781.418a.889.889 0 0 0 .333.351l.448-.769Zm17.089 25.027-.884.023.884-.023Zm-37.041 30.6-.022-.892.022.892Zm-38.17-28.586.885-.023-.884.023ZM41.257 46.12l.588.666a.897.897 0 0 0-.162-1.448l-.426.782Zm-3.13-3.962.866.178-.866-.178Zm6.779-3.263c-1.016-.562-1.764-1.16-2.218-1.722-.458-.565-.543-.993-.484-1.286l-1.733-.356c-.205 1.016.205 1.978.847 2.771.646.798 1.602 1.529 2.737 2.158l.85-1.565Zm-2.702-3.008c.05-.247.225-.533.658-.823.437-.293 1.081-.546 1.92-.718 1.673-.342 3.948-.321 6.41.185l.353-1.748c-2.637-.543-5.158-.586-7.115-.186-.977.2-1.857.519-2.545.98-.693.463-1.244 1.109-1.414 1.954l1.733.356Zm8.988-1.356c1.834.377 3.475.963 4.779 1.645l.814-1.584c-1.466-.768-3.265-1.403-5.24-1.81l-.353 1.75Zm6.053 1.03.001-.007-1.734-.353v.007l1.733.353Zm0-.005c.05-.247.226-.533.659-.823.437-.293 1.08-.546 1.92-.718 1.673-.342 3.948-.321 6.41.185l.353-1.748c-2.637-.543-5.158-.586-7.115-.186-.977.2-1.857.519-2.545.98-.693.463-1.244 1.109-1.414 1.953l1.733.357Zm8.989-1.356c2.637.542 4.855 1.51 6.252 2.564l1.059-1.43c-1.66-1.251-4.14-2.303-6.958-2.882l-.353 1.748Zm7.175 2.648c.682-.343 1.842-.493 3.376-.317 1.506.173 3.269.65 5.077 1.439l.702-1.638c-1.946-.85-3.878-1.379-5.58-1.574-1.674-.192-3.236-.074-4.363.492l.788 1.598Zm8.453 1.122c3.239 1.413 5.562 3.363 6.374 4.909l1.562-.836c-1.085-2.066-3.838-4.23-7.234-5.711l-.702 1.638Zm6.707 5.26c9.038 5.363 16.382 13.833 16.653 24.281l1.768-.047c-.294-11.32-8.225-20.254-17.525-25.772l-.896 1.538Zm16.653 24.281c.24 9.171-3.683 16.425-10.203 21.479-6.544 5.072-15.733 7.945-25.976 8.206l.044 1.784c10.52-.268 20.1-3.218 27.01-8.575 6.934-5.375 11.15-13.157 10.893-22.94l-1.768.046Zm-36.18 29.685c-10.244.26-19.463-2.118-26.156-6.826C36.22 85.68 32.02 78.658 31.78 69.479l-1.768.047c.256 9.775 4.76 17.311 11.863 22.308 7.077 4.978 16.694 7.414 27.212 7.146l-.044-1.784ZM31.78 69.479c-.236-8.987 3.643-16.917 10.065-22.693l-1.176-1.332C33.9 51.539 29.76 59.956 30.01 69.526l1.768-.047Zm5.48-27.499c-.204 1.015.204 1.975.844 2.767.643.797 1.595 1.527 2.727 2.155l.852-1.564c-1.011-.561-1.756-1.159-2.208-1.718-.456-.565-.54-.99-.482-1.284l-1.733-.356Zm7.24-3.195c-1.783-.04-3.41.178-4.669.656-1.225.466-2.315 1.272-2.57 2.539l1.732.356c.074-.366.449-.84 1.462-1.225.98-.372 2.364-.579 4.005-.541l.04-1.785Z"/><path stroke="#003451" stroke-linecap="round" stroke-linejoin="round" stroke-width=".932" d="M76 74.011s3.083 7.275 4.535 4.255c.71-1.615 1.35-3.642 1.755-4.976 0 0 2.886 6.256 4.65 3.948 1.764-2.308.794-6.238.794-6.238"/><path fill="#003451" fill-rule="nonzero" d="M63.017 73.877a4 4 0 0 0 1.966-7.754 4 4 0 0 0-1.966 7.754ZM96.017 68.877a4 4 0 0 0 1.966-7.754 4 4 0 0 0-1.966 7.754Z"/><path fill="#F57AFF" fill-rule="nonzero" d="M50 69.299s-.347-1.127-2.942-9.059c-4.835-14.776-15.42-13.467-27.354-21.717-4.383-3.022-9.338-5.797-8.637-.687 1.24 8.506 7.194 10.406 12.252 12.726-4.546-1.503-6.813-1.084-6.818.502-.004 3.044 4.578 7.765 11.644 10.702 0 0-4.803-1.157-5.051 1.089-.486 4.314 6.066 8.175 11.271 8.05 5.752-.128 8.947 1.354 10.223 2.7 1.884 1.878 5.475-3.513 5.411-4.306Z"/><g fill="#000" fill-rule="nonzero"><path d="M130.14 40.16V83h32.52v-7.92h-23.1v-10.5h20.76v-7.32h-20.76v-9.18h22.62v-7.92zM166.048 51.98V83h8.52V66.74c0-3.16.52-5.43 1.56-6.81s2.72-2.07 5.04-2.07c2.04 0 3.46.63 4.26 1.89.8 1.26 1.2 3.17 1.2 5.73V83h8.52V63.92c0-1.92-.17-3.67-.51-5.25-.34-1.58-.93-2.92-1.77-4.02-.84-1.1-1.99-1.96-3.45-2.58-1.46-.62-3.33-.93-5.61-.93-1.8 0-3.56.41-5.28 1.23-1.72.82-3.12 2.13-4.2 3.93h-.18v-4.32h-8.1ZM199.557 40.16V83h8.52V66.74c0-3.16.52-5.43 1.56-6.81s2.72-2.07 5.04-2.07c2.04 0 3.46.63 4.26 1.89.8 1.26 1.2 3.17 1.2 5.73V83h8.52V63.92c0-1.92-.17-3.67-.51-5.25-.34-1.58-.93-2.92-1.77-4.02-.84-1.1-1.99-1.96-3.45-2.58-1.46-.62-3.33-.93-5.61-.93-1.6 0-3.24.41-4.92 1.23-1.68.82-3.06 2.13-4.14 3.93h-.18V40.16h-8.52ZM232.705 61.52c.12-2 .62-3.66 1.5-4.98.88-1.32 2-2.38 3.36-3.18 1.36-.8 2.89-1.37 4.59-1.71 1.7-.34 3.41-.51 5.13-.51 1.56 0 3.14.11 4.74.33 1.6.22 3.06.65 4.38 1.29 1.32.64 2.4 1.53 3.24 2.67.84 1.14 1.26 2.65 1.26 4.53V76.1c0 1.4.08 2.74.24 4.02.16 1.28.44 2.24.84 2.88h-8.64c-.16-.48-.29-.97-.39-1.47-.1-.5-.17-1.01-.21-1.53-1.36 1.4-2.96 2.38-4.8 2.94-1.84.56-3.72.84-5.64.84-1.48 0-2.86-.18-4.14-.54-1.28-.36-2.4-.92-3.36-1.68a7.82 7.82 0 0 1-2.25-2.88c-.54-1.16-.81-2.54-.81-4.14 0-1.76.31-3.21.93-4.35.62-1.14 1.42-2.05 2.4-2.73.98-.68 2.1-1.19 3.36-1.53 1.26-.34 2.53-.61 3.81-.81 1.28-.2 2.54-.36 3.78-.48 1.24-.12 2.34-.3 3.3-.54.96-.24 1.72-.59 2.28-1.05.56-.46.82-1.13.78-2.01 0-.92-.15-1.65-.45-2.19-.3-.54-.7-.96-1.2-1.26-.5-.3-1.08-.5-1.74-.6-.66-.1-1.37-.15-2.13-.15-1.68 0-3 .36-3.96 1.08-.96.72-1.52 1.92-1.68 3.6h-8.52Zm19.68 6.3c-.36.32-.81.57-1.35.75-.54.18-1.12.33-1.74.45-.62.12-1.27.22-1.95.3-.68.08-1.36.18-2.04.3-.64.12-1.27.28-1.89.48-.62.2-1.16.47-1.62.81-.46.34-.83.77-1.11 1.29-.28.52-.42 1.18-.42 1.98 0 .76.14 1.4.42 1.92.28.52.66.93 1.14 1.23.48.3 1.04.51 1.68.63.64.12 1.3.18 1.98.18 1.68 0 2.98-.28 3.9-.84.92-.56 1.6-1.23 2.04-2.01.44-.78.71-1.57.81-2.37.1-.8.15-1.44.15-1.92v-3.18ZM265.434 51.98V83h8.52V66.74c0-3.16.52-5.43 1.56-6.81s2.72-2.07 5.04-2.07c2.04 0 3.46.63 4.26 1.89.8 1.26 1.2 3.17 1.2 5.73V83h8.52V63.92c0-1.92-.17-3.67-.51-5.25-.34-1.58-.93-2.92-1.77-4.02-.84-1.1-1.99-1.96-3.45-2.58-1.46-.62-3.33-.93-5.61-.93-1.8 0-3.56.41-5.28 1.23-1.72.82-3.12 2.13-4.2 3.93h-.18v-4.32h-8.1ZM320.062 62.9h8.34c-.12-2-.6-3.73-1.44-5.19-.84-1.46-1.93-2.68-3.27-3.66s-2.86-1.71-4.56-2.19c-1.7-.48-3.47-.72-5.31-.72-2.52 0-4.76.42-6.72 1.26-1.96.84-3.62 2.01-4.98 3.51-1.36 1.5-2.39 3.28-3.09 5.34-.7 2.06-1.05 4.29-1.05 6.69 0 2.32.38 4.45 1.14 6.39.76 1.94 1.82 3.61 3.18 5.01s3.01 2.49 4.95 3.27c1.94.78 4.07 1.17 6.39 1.17 4.12 0 7.5-1.08 10.14-3.24 2.64-2.16 4.24-5.3 4.8-9.42h-8.22c-.28 1.92-.97 3.45-2.07 4.59-1.1 1.14-2.67 1.71-4.71 1.71-1.32 0-2.44-.3-3.36-.9-.92-.6-1.65-1.37-2.19-2.31s-.93-1.99-1.17-3.15c-.24-1.16-.36-2.3-.36-3.42 0-1.16.12-2.33.36-3.51.24-1.18.65-2.26 1.23-3.24.58-.98 1.33-1.78 2.25-2.4.92-.62 2.06-.93 3.42-.93 3.64 0 5.74 1.78 6.3 5.34ZM352.19 64.16h-13.86c.04-.6.17-1.28.39-2.04s.6-1.48 1.14-2.16c.54-.68 1.26-1.25 2.16-1.71.9-.46 2.03-.69 3.39-.69 2.08 0 3.63.56 4.65 1.68 1.02 1.12 1.73 2.76 2.13 4.92Zm-13.86 5.4h22.38c.16-2.4-.04-4.7-.6-6.9-.56-2.2-1.47-4.16-2.73-5.88-1.26-1.72-2.87-3.09-4.83-4.11-1.96-1.02-4.26-1.53-6.9-1.53-2.36 0-4.51.42-6.45 1.26-1.94.84-3.61 1.99-5.01 3.45-1.4 1.46-2.48 3.19-3.24 5.19-.76 2-1.14 4.16-1.14 6.48 0 2.4.37 4.6 1.11 6.6.74 2 1.79 3.72 3.15 5.16 1.36 1.44 3.02 2.55 4.98 3.33 1.96.78 4.16 1.17 6.6 1.17 3.52 0 6.52-.8 9-2.4 2.48-1.6 4.32-4.26 5.52-7.98h-7.5c-.28.96-1.04 1.87-2.28 2.73-1.24.86-2.72 1.29-4.44 1.29-2.4 0-4.24-.62-5.52-1.86-1.28-1.24-1.98-3.24-2.1-6Z"/></g></g></svg>