<svg width="1035" height="236" xmlns="http://www.w3.org/2000/svg" xmlns:xlink="http://www.w3.org/1999/xlink"><defs><linearGradient x1="-3.358%" y1="-52.015%" x2="-3.358%" y2="103.212%" id="b"><stop stop-color="#8234F0" offset="0%"/><stop stop-color="#A122FE" offset="19.371%"/><stop stop-color="#DE36EE" offset="39.826%"/><stop stop-color="#F54BD6" offset="64.059%"/><stop stop-color="#FB67AC" offset="78.603%"/><stop stop-color="#FA8789" offset="100%"/><stop stop-color="#D8D8D8" offset="100%"/></linearGradient><path d="M47.362 176V80.972h1.207l37.642 94.318h20.313l37.642-93.963h1.207V176h29.83V30.545h-37.926L97.22 128.273h-1.705L55.458 30.545H17.532V176h29.83zm187.424 2.13c11.032 0 20.56-2.355 28.586-7.066s14.217-11.293 18.573-19.744c4.356-8.452 6.534-18.265 6.534-29.44 0-11.268-2.178-21.129-6.534-29.58-4.356-8.452-10.547-15.033-18.573-19.745-8.025-4.71-17.554-7.066-28.586-7.066-11.033 0-20.561 2.355-28.587 7.066-8.026 4.712-14.216 11.293-18.572 19.745-4.356 8.451-6.534 18.312-6.534 29.58 0 11.175 2.178 20.988 6.534 29.44 4.356 8.451 10.546 15.033 18.572 19.744s17.554 7.067 28.587 7.067zm.142-23.437c-5.067 0-9.316-1.432-12.749-4.297-3.433-2.864-6.013-6.782-7.741-11.754-1.729-4.972-2.593-10.63-2.593-16.974 0-6.345.864-12.003 2.593-16.975 1.728-4.971 4.308-8.901 7.741-11.79 3.433-2.888 7.682-4.332 12.749-4.332 5.019 0 9.209 1.444 12.57 4.332 3.362 2.889 5.907 6.819 7.636 11.79 1.728 4.972 2.592 10.63 2.592 16.975 0 6.344-.864 12.002-2.592 16.974-1.729 4.972-4.274 8.89-7.635 11.754-3.362 2.865-7.552 4.297-12.571 4.297zM353.744 176l38.139-109.09h-32.031l-22.585 78.053h-1.137L313.474 66.91h-31.96L319.653 176h34.09zm54.44-123.153c4.499 0 8.346-1.504 11.542-4.51 3.196-3.007 4.794-6.617 4.794-10.831 0-4.167-1.598-7.754-4.794-10.76-3.196-3.007-7.067-4.51-11.612-4.51-4.451 0-8.286 1.503-11.506 4.51-3.22 3.006-4.83 6.593-4.83 10.76 0 4.214 1.61 7.824 4.83 10.83 3.22 3.007 7.079 4.51 11.577 4.51zM423.172 176V66.91h-30.256V176h30.256zm59.469 2.13c8.996 0 16.939-1.384 23.828-4.154 6.89-2.77 12.524-6.653 16.903-11.648 4.38-4.995 7.28-10.855 8.7-17.578l-27.982-1.847c-1.042 2.747-2.557 5.067-4.546 6.96-1.988 1.895-4.38 3.315-7.173 4.262-2.794.947-5.871 1.42-9.233 1.42-5.066 0-9.446-1.065-13.14-3.196-3.692-2.13-6.545-5.16-8.557-9.09-2.013-3.93-3.019-8.594-3.019-13.992v-.07l74.29-.001v-8.31c0-9.28-1.302-17.388-3.906-24.325-2.605-6.936-6.239-12.701-10.902-17.294-4.664-4.593-10.11-8.037-16.336-10.334-6.226-2.296-12.938-3.444-20.135-3.444-10.7 0-20.016 2.367-27.947 7.102-7.93 4.735-14.074 11.34-18.43 19.815-4.356 8.476-6.534 18.324-6.534 29.546 0 11.505 2.178 21.46 6.534 29.865 4.356 8.404 10.57 14.89 18.643 19.46s17.72 6.854 28.942 6.854zm-24.185-67.805c.198-3.872 1.204-7.418 3.02-10.639 1.989-3.527 4.747-6.345 8.274-8.452 3.528-2.107 7.588-3.16 12.18-3.16 4.404 0 8.275.959 11.613 2.876 3.338 1.918 5.954 4.558 7.848 7.92 1.894 3.361 2.84 7.22 2.84 11.576l-45.78.001.005-.122zm124.265 67.806c9.47 0 17.839-1.504 25.107-4.51 7.268-3.007 12.997-7.21 17.187-12.607 4.19-5.398 6.286-11.671 6.286-18.82 0-7.86-2.605-14.205-7.813-19.035s-13.115-8.333-23.721-10.511l-19.745-3.978c-5.066-1.089-8.64-2.533-10.724-4.332-2.084-1.8-3.125-4-3.125-6.605 0-3.267 1.61-5.883 4.83-7.848 3.22-1.965 7.173-2.948 11.86-2.948 3.504 0 6.522.58 9.056 1.74 2.533 1.16 4.58 2.7 6.143 4.617 1.563 1.918 2.58 4.06 3.054 6.428l27.699-1.705c-1.326-10.038-5.954-17.969-13.885-23.793-7.931-5.823-18.786-8.735-32.564-8.735-9.328 0-17.46 1.373-24.396 4.119-6.937 2.746-12.31 6.652-16.122 11.719-3.812 5.066-5.718 11.103-5.718 18.11 0 8.144 2.593 14.844 7.777 20.1 5.185 5.256 13.104 8.949 23.757 11.08l18.892 3.764c4.735.947 8.239 2.308 10.512 4.083 2.272 1.776 3.432 4.037 3.48 6.783-.048 3.267-1.693 5.93-4.936 7.99-3.244 2.06-7.517 3.09-12.82 3.09-5.398 0-9.825-1.148-13.281-3.445-3.457-2.296-5.635-5.646-6.534-10.05l-29.759 1.563c1.468 10.417 6.475 18.643 15.022 24.68 8.546 6.037 20.04 9.056 34.481 9.056zM693.591 176l10.79-33.167h52.517L767.668 176h32.954L750.48 30.545h-39.63L660.637 176h32.954zm55.513-57.173H712.19l17.907-55.043h1.136l17.871 55.043zm84.226 98.082v-58.38h.923c1.374 3.03 3.362 6.025 5.966 8.984 2.604 2.96 5.954 5.41 10.05 7.35 4.096 1.942 9.08 2.913 14.95 2.913 8.286 0 15.78-2.143 22.479-6.428 6.7-4.285 12.003-10.606 15.91-18.963 3.905-8.357 5.858-18.62 5.858-30.788 0-12.5-2.012-22.905-6.036-31.215-4.025-8.31-9.4-14.536-16.123-18.679-6.723-4.143-14.062-6.214-22.017-6.214-6.108 0-11.21 1.03-15.305 3.09-4.096 2.059-7.41 4.616-9.943 7.67-2.533 3.054-4.463 6.048-5.789 8.984h-1.349V66.909h-29.83v150h30.256zm22.301-63.21c-4.877 0-9.02-1.338-12.429-4.013-3.409-2.675-6.013-6.427-7.812-11.257-1.8-4.83-2.7-10.488-2.7-16.974 0-6.487.9-12.122 2.7-16.904 1.799-4.782 4.391-8.475 7.777-11.08 3.385-2.604 7.54-3.906 12.464-3.906 4.972 0 9.162 1.35 12.571 4.049 3.41 2.698 5.99 6.439 7.742 11.221 1.752 4.782 2.628 10.322 2.628 16.62 0 6.344-.888 11.943-2.664 16.796-1.775 4.854-4.368 8.642-7.777 11.364-3.409 2.723-7.576 4.084-12.5 4.084zm89.754 63.21v-58.38h.923c1.373 3.03 3.362 6.025 5.966 8.984 2.604 2.96 5.954 5.41 10.05 7.35 4.095 1.942 9.079 2.913 14.95 2.913 8.286 0 15.779-2.143 22.479-6.428 6.7-4.285 12.002-10.606 15.909-18.963 3.906-8.357 5.86-18.62 5.86-30.788 0-12.5-2.013-22.905-6.038-31.215-4.024-8.31-9.399-14.536-16.122-18.679-6.723-4.143-14.062-6.214-22.017-6.214-6.108 0-11.21 1.03-15.305 3.09-4.096 2.059-7.41 4.616-9.944 7.67-2.533 3.054-4.462 6.048-5.788 8.984h-1.35V66.909H915.13v150h30.256zm22.3-63.21c-4.876 0-9.019-1.338-12.428-4.013-3.41-2.675-6.013-6.427-7.813-11.257-1.799-4.83-2.698-10.488-2.698-16.974 0-6.487.9-12.122 2.698-16.904 1.8-4.782 4.392-8.475 7.777-11.08 3.386-2.604 7.54-3.906 12.465-3.906 4.971 0 9.162 1.35 12.57 4.049 3.41 2.698 5.99 6.439 7.742 11.221 1.752 4.782 2.628 10.322 2.628 16.62 0 6.344-.888 11.943-2.663 16.796-1.776 4.854-4.368 8.642-7.777 11.364-3.41 2.723-7.576 4.084-12.5 4.084z" id="a"/></defs><g fill-rule="nonzero" fill="none"><use fill="#000" xlink:href="#a"/><use fill="url(#b)" xlink:href="#a"/></g></svg>