<?xml version="1.0" standalone="no"?>
<!DOCTYPE svg PUBLIC "-//W3C//DTD SVG 20010904//EN"
 "http://www.w3.org/TR/2001/REC-SVG-20010904/DTD/svg10.dtd">
<svg version="1.0" xmlns="http://www.w3.org/2000/svg"
 width="512.000000pt" height="512.000000pt" viewBox="0 0 512.000000 512.000000"
 preserveAspectRatio="xMidYMid meet">
<metadata>
Created by potrace 1.14, written by Peter Selinger 2001-2017
</metadata>
<g transform="translate(0.000000,512.000000) scale(0.100000,-0.100000)"
fill="#000000" stroke="none">
<path d="M763 4895 c-127 -28 -220 -99 -290 -225 -48 -85 -46 -22 -46 -2120 0
-1837 1 -1979 17 -2033 31 -102 109 -198 207 -251 99 -55 23 -53 1934 -51
l1770 1 58 23 c62 24 129 71 177 124 40 43 86 142 96 203 4 27 7 935 7 2019
l-1 1970 -22 60 c-13 33 -30 72 -39 86 -46 75 -132 146 -219 181 l-57 23
-1765 1 c-1437 2 -1777 -1 -1827 -11z m241 -425 c50 -19 61 -52 62 -191 1
-210 -14 -226 -221 -225 l-135 1 -32 33 -33 32 -3 136 c-5 213 4 223 205 224
72 0 143 -4 157 -10z m3427 -7 c41 -24 49 -59 49 -205 l0 -128 -34 -37 -34
-37 -128 -2 c-215 -3 -233 14 -230 226 2 195 6 198 214 199 109 1 139 -2 163
-16z m-3394 -655 c26 -27 27 -30 29 -163 3 -215 -15 -233 -227 -231 l-131 1
-34 37 -34 38 0 134 c0 211 7 217 222 214 146 -3 148 -3 175 -30z m3405 3 l33
-29 3 -146 3 -145 -34 -38 -35 -38 -136 -1 c-208 -1 -225 16 -222 226 1 135
12 171 59 190 12 5 84 9 159 9 l138 1 32 -29z m-3438 -621 c50 -19 61 -52 62
-190 3 -206 -13 -224 -205 -226 -204 -3 -221 14 -221 221 0 136 10 172 54 194
27 13 277 14 310 1z m3427 -7 c41 -24 49 -59 49 -205 l0 -128 -34 -37 -34 -37
-128 -2 c-215 -3 -233 14 -230 226 2 195 6 198 214 199 109 1 139 -2 163 -16z
m-3421 -636 c47 -23 58 -65 56 -206 -2 -195 -18 -209 -227 -207 l-129 1 -33
33 -32 32 -3 138 c-4 148 6 188 51 210 32 15 286 15 317 -1z m3432 -16 l33
-29 3 -146 3 -145 -34 -38 -35 -38 -136 -1 c-208 -1 -225 16 -222 226 1 135
12 171 59 190 12 5 84 9 159 9 l138 1 32 -29z m-3405 -643 c26 -27 27 -30 29
-163 3 -215 -15 -233 -227 -231 l-131 1 -34 37 -34 38 0 134 c0 211 7 217 222
214 146 -3 148 -3 175 -30z m3394 15 c41 -24 49 -59 49 -205 l0 -128 -34 -37
-34 -37 -128 -2 c-215 -3 -233 14 -230 226 2 195 6 198 214 199 109 1 139 -2
163 -16z m-3421 -636 c47 -23 58 -64 56 -206 -3 -195 -19 -209 -229 -206
l-128 2 -32 32 -32 31 -3 136 c-5 214 4 223 208 224 88 0 144 -5 160 -13z
m3432 -16 l33 -29 3 -146 3 -145 -34 -37 -34 -37 -132 -2 c-210 -2 -225 11
-228 206 -1 102 2 133 15 160 26 52 50 59 204 59 l138 0 32 -29z"/>
</g>
</svg>
